<svg xmlns="http://www.w3.org/2000/svg" viewBox="0 0 83 83"><defs>.cls-1{fill:#fff}.cls-2{fill:#e3e5e7}</defs><g id="Layer_2" data-name="Layer 2"><g id="Layer_1-2" data-name="Layer 1"><path class="cls-1" d="M11 0H0v11h1V1h10V0zM72 0v1h10v10h1V0H72zM82 72v10H72v1h11V72h-1zM11 82H1V72H0v11h11v-1z"/><path class="cls-2" d="M46.89 16.68a22 22 0 0 0-10-.21.49.49 0 0 0-.37.57.48.48 0 0 0 .57.36 21.09 21.09 0 0 1 9.55.21 22.55 22.55 0 0 1 16 14.76 31.41 31.41 0 0 1 1.38 9 .49.49 0 0 0 .49.47.48.48 0 0 0 .46-.49 32.87 32.87 0 0 0-1.4-9.2 23.55 23.55 0 0 0-16.68-15.47ZM34.53 18.12a.48.48 0 0 0 .33-.59.47.47 0 0 0-.58-.33c-3.47 1-8.34 4.26-11.36 8.68a21.89 21.89 0 0 0-3.84 13.86c.11.89.3 1.78.48 2.66a15.23 15.23 0 0 1 .44 5.66.48.48 0 0 0 .94.15 16.16 16.16 0 0 0-.48-5.87c-.18-.9-.37-1.79-.48-2.7a21 21 0 0 1 3.69-13.23c2.94-4.25 7.63-7.41 10.86-8.29Z"/><path class="cls-2" d="M40.75 19.18a19.46 19.46 0 0 1 15.92 6.72.48.48 0 0 1-.06.67.46.46 0 0 1-.66-.05 18.56 18.56 0 0 0-15.14-6.4 18.68 18.68 0 0 0-16.34 12 .47.47 0 1 1-.89-.32 19.59 19.59 0 0 1 17.17-12.62ZM58.11 28a.48.48 0 0 0-.79.53 22.49 22.49 0 0 1 3.5 11.16.47.47 0 0 0 .51.43.48.48 0 0 0 .44-.51A23.58 23.58 0 0 0 58.11 28ZM61.45 41.59A.49.49 0 0 1 62 42a48.37 48.37 0 0 1-.13 8.49.48.48 0 1 1-1-.13A46.09 46.09 0 0 0 61 42.1a.49.49 0 0 1 .45-.51ZM23.74 34.44a.47.47 0 1 0-.92-.22 19.22 19.22 0 0 0-.54 4.41 23.69 23.69 0 0 0 .57 4.51 30.5 30.5 0 0 1 .54 3.68 11.8 11.8 0 0 1-.84 4.82.48.48 0 0 0 .27.62.47.47 0 0 0 .61-.28 12.46 12.46 0 0 0 .9-5.21 26.84 26.84 0 0 0-.54-3.67 24.08 24.08 0 0 1-.56-4.47 18.48 18.48 0 0 1 .51-4.19Z"/><path class="cls-2" d="M36.19 23.9a.48.48 0 0 1-.26.62 15.1 15.1 0 0 0-9.37 11.68 22.17 22.17 0 0 0 .37 6.55c.19 1.22.38 2.45.46 3.68a13.25 13.25 0 0 1-1.88 8.24.47.47 0 0 1-.66.14.46.46 0 0 1-.13-.65 12.41 12.41 0 0 0 1.72-7.68c-.08-1.24-.27-2.48-.46-3.72a22.77 22.77 0 0 1-.36-6.69 16.08 16.08 0 0 1 10-12.44.48.48 0 0 1 .57.27ZM52.85 26.6a16.38 16.38 0 0 0-14.62-3.78.47.47 0 1 0 .2.92 15.45 15.45 0 0 1 13.77 3.55 18.26 18.26 0 0 1 5.3 11.58.47.47 0 0 0 .94-.1 19.15 19.15 0 0 0-5.59-12.17ZM58.34 41a.49.49 0 0 1 .52.43 56 56 0 0 1-.42 13.71.49.49 0 0 1-.54.4.47.47 0 0 1-.4-.54 55.18 55.18 0 0 0 .42-13.48.47.47 0 0 1 .42-.52Z"/><path class="cls-2" d="M41.8 25.64a13.08 13.08 0 0 0-13.18 13 12.81 12.81 0 0 0 .2 2.25.47.47 0 0 0 .55.38.48.48 0 0 0 .39-.55 11.83 11.83 0 0 1-.19-2.08 12.13 12.13 0 0 1 12.23-12 12.29 12.29 0 0 1 8 2.92.47.47 0 1 0 .61-.72 13.22 13.22 0 0 0-8.61-3.2ZM51.47 30.56a.47.47 0 0 1 .67 0c2.09 2.18 2.76 5.62 3.21 8.5a54.4 54.4 0 0 1 .57 7.87.48.48 0 1 1-1 0 53.61 53.61 0 0 0-.56-7.73c-.41-2.67-1-6-3-8a.47.47 0 0 1 .11-.64ZM55.8 49.66a.47.47 0 0 0-.43-.51.48.48 0 0 0-.52.43 59.2 59.2 0 0 1-1.15 8.54.47.47 0 0 0 .36.57.46.46 0 0 0 .56-.36 59.54 59.54 0 0 0 1.18-8.67ZM29.58 42.61a.46.46 0 0 1 .56.37 17.89 17.89 0 0 1-2.34 13.77.48.48 0 1 1-.8-.52 17 17 0 0 0 2.21-13.07.47.47 0 0 1 .37-.55Z"/><path class="cls-2" d="M41.8 28.73c-4.72 0-9.35 3.65-9.82 8.24a23.9 23.9 0 0 0 .37 6 26.82 26.82 0 0 1 .43 5.21 17.7 17.7 0 0 1-3.37 10.02.48.48 0 0 0 .1.66.47.47 0 0 0 .66-.1 18.56 18.56 0 0 0 3.56-10.56 27.52 27.52 0 0 0-.43-5.2 24.1 24.1 0 0 1-.38-5.93c.42-4 4.57-7.39 8.88-7.39 2 0 7.21 1.09 8.87 6.48a37.59 37.59 0 0 1 1.07 12.39A40.34 40.34 0 0 1 49.65 60a.48.48 0 0 0 .28.62.47.47 0 0 0 .61-.28 41.48 41.48 0 0 0 2.14-11.7 38.5 38.5 0 0 0-1.1-12.72c-1.84-6.03-7.58-7.19-9.78-7.19Z"/><path class="cls-2" d="M34.5 56.76a.47.47 0 0 1 .14.65 15 15 0 0 0-.81 1.4c-.26.47-.52.94-.82 1.39a.47.47 0 0 1-.65.14.48.48 0 0 1-.14-.66c.29-.45.55-.92.81-1.39s.52-.95.81-1.4a.47.47 0 0 1 .66-.13ZM38.56 33.65a.46.46 0 0 0 .13-.65.48.48 0 0 0-.66-.14 6.29 6.29 0 0 0-3 5.52 18.07 18.07 0 0 0 .54 4 24 24 0 0 1 .64 5.72 17.33 17.33 0 0 1-1.41 6.57.47.47 0 0 0 .25.62.46.46 0 0 0 .62-.24 18.26 18.26 0 0 0 1.49-6.92 24.84 24.84 0 0 0-.66-6 17.25 17.25 0 0 1-.52-3.8 5.34 5.34 0 0 1 2.58-4.68ZM40.41 32a6.9 6.9 0 0 1 5.65 1.35c2.79 2.26 3.16 6.37 3.46 9.7v.17a41.77 41.77 0 0 1-1 12.66.48.48 0 0 1-.93-.2 41.29 41.29 0 0 0 .94-12.37v-.42c-.27-3-.6-6.78-3.09-8.79a5.91 5.91 0 0 0-4.86-1.16.49.49 0 0 1-.56-.37.48.48 0 0 1 .39-.57ZM47.91 58.23A.48.48 0 0 0 47 58a11.45 11.45 0 0 1-1.29 3.08.48.48 0 0 0 .82.49 12.52 12.52 0 0 0 1.38-3.34ZM45.59 51.34a.48.48 0 0 1 .42.53A27.18 27.18 0 0 1 42.92 62a.47.47 0 0 1-.64.19.49.49 0 0 1-.19-.65 26.06 26.06 0 0 0 3-9.74.48.48 0 0 1 .5-.46Z"/><path class="cls-2" d="M45.49 38.13A3.75 3.75 0 0 0 41.82 35a3.84 3.84 0 0 0-3.6 4.82 27.46 27.46 0 0 1 .5 11.88 26.4 26.4 0 0 1-3.37 9.11.47.47 0 0 0 .15.65.49.49 0 0 0 .66-.16 27.17 27.17 0 0 0 3.5-9.43 28.5 28.5 0 0 0-.52-12.28A2.89 2.89 0 0 1 41.82 36a2.81 2.81 0 0 1 2.74 2.32 45 45 0 0 1 .79 10.92.48.48 0 0 0 .44.51.47.47 0 0 0 .51-.43 46.14 46.14 0 0 0-.81-11.16ZM40.41 58.68a.48.48 0 0 1 .2.64l-1.25 2.45a.48.48 0 0 1-.64.2.47.47 0 0 1-.21-.64l1.26-2.44a.47.47 0 0 1 .64-.21Z"/><path class="cls-2" d="M42.18 38.59a.48.48 0 0 0-.93.22c1.6 6.81 1.38 12.79-.57 17.88a.47.47 0 0 0 .28.61.46.46 0 0 0 .61-.27c2.03-5.31 2.24-11.49.61-18.44Z"/></g></g></svg>