<svg width="153" height="57" viewBox="0 0 153 57" fill="none" xmlns="http://www.w3.org/2000/svg">
<path d="M116.634 36.7447C110.871 36.6114 106.407 35.2789 102.076 33.6466C95.3468 31.1148 88.7175 28.3165 82.7878 24.0858C78.7903 21.2209 77.9908 19.2887 79.4899 14.5916C80.4893 11.4269 81.8551 8.3954 83.1543 5.36393C84.0204 3.36515 85.5195 2.03264 87.7515 1.73282C91.749 1.19981 95.7133 0.400305 99.7441 0.200427C106.44 -0.132702 113.203 -0.199328 119.798 1.19981C123.33 1.9327 126.861 3.09865 129.526 5.86362C131.225 7.62921 132.024 9.82786 131.458 12.1264C129.959 17.8896 128.393 23.6527 126.494 29.3159C125.162 33.2801 121.331 37.0445 116.634 36.7447ZM123.263 27.4504C123.563 27.3505 123.696 27.3171 123.729 27.2505C124.029 26.6176 124.396 25.9846 124.596 25.2851C125.828 20.9544 127.227 16.6237 128.193 12.2264C129.026 8.3954 126.628 5.46387 122.663 5.09742C125.595 7.49595 126.061 10.6274 125.628 13.992C125.295 16.4571 124.895 18.9223 124.496 21.3541C124.129 23.4195 123.696 25.385 123.263 27.4504ZM83.121 15.0247C82.9211 15.058 82.6879 15.0913 82.488 15.1246C82.3548 16.3239 81.9217 17.5565 82.1216 18.6558C82.3881 20.2881 86.852 22.9198 88.6176 22.7866C86.319 20.5546 82.055 19.7884 83.121 15.0247Z" fill="white"/>
<path d="M91.0183 43.2748C91.0183 40.9429 91.0183 38.8775 91.0183 36.6456C92.2509 36.6456 93.3502 36.6456 94.5495 36.6456C94.5495 42.9417 94.5495 49.2045 94.5495 55.5673C93.4835 55.5673 92.4841 55.5673 91.3847 55.5673C91.3181 55.1009 91.2848 54.6345 91.2182 54.2015C89.9856 54.8344 88.8863 55.6339 87.6537 55.9337C85.1552 56.5334 82.5901 54.8677 81.6574 52.3026C80.8246 50.0374 80.7912 47.7388 81.5241 45.4402C82.79 41.4426 86.9208 40.3766 91.0183 43.2748ZM84.6222 48.5383C84.7222 49.2712 84.7222 49.8708 84.8554 50.4704C85.2552 52.1694 86.3212 53.1355 87.7536 53.1688C89.3193 53.2021 90.5852 52.3026 90.8517 50.5037C91.0516 49.2378 90.9184 47.872 90.6852 46.5728C90.452 45.107 89.4193 44.2742 87.8869 44.2409C86.3212 44.2076 85.4217 45.1404 84.9887 46.5062C84.7555 47.2058 84.7222 47.9386 84.6222 48.5383Z" fill="white"/>
<path d="M38.5495 42.8069C38.5495 40.908 38.5495 38.8093 38.5495 36.6107C39.7488 36.6107 40.8148 36.6107 42.0141 36.6107C42.0141 42.9401 42.0141 49.2029 42.0141 55.5657C41.048 55.5657 40.0819 55.5657 38.9826 55.5657C38.8826 55.1659 38.7494 54.6663 38.6161 54.1666C34.985 56.765 32.0535 56.665 29.9881 53.7668C28.2891 51.4016 28.2891 48.6699 28.9221 45.9716C29.5217 43.3732 31.4205 41.541 34.019 41.5743C35.4847 41.5743 36.9505 42.3405 38.5495 42.8069ZM38.6828 48.7699C38.5162 47.9037 38.4496 47.0043 38.1498 46.2048C37.7167 44.9056 36.684 44.2726 35.3515 44.2726C33.4859 44.2726 32.3866 45.7051 32.2867 48.1036C32.1867 51.3017 33.1195 53.0339 35.085 53.2005C37.2836 53.3671 38.5495 51.8013 38.6828 48.7699Z" fill="white"/>
<path d="M27.8222 42.0083C26.7229 43.1743 25.7901 44.1403 24.8907 45.1064C23.1251 47.0052 23.1584 47.1718 24.5908 49.4371C25.8567 51.3692 26.9894 53.4013 28.2219 55.4001C25.1238 56.1663 24.6242 55.9331 23.1917 53.368C22.4921 52.1354 21.7926 50.8695 21.093 49.6037C18.1281 50.8362 19.4606 53.5013 18.961 55.6C17.8949 55.6 16.8622 55.6 15.6963 55.6C15.6963 49.2372 15.6963 42.9744 15.6963 36.5783C16.7623 36.5783 17.795 36.5783 19.0276 36.5783C19.0276 39.843 19.0276 43.0743 19.0276 46.3057C19.1608 46.3723 19.2941 46.4389 19.4273 46.5056C20.1602 45.6727 21.0597 44.9398 21.626 44.0071C23.0251 41.6752 25.1238 41.5419 27.8222 42.0083Z" fill="white"/>
<path d="M13.5643 55.6993C12.3317 55.3328 10.6328 56.5654 10.0331 54.7665C8.33417 55.1996 6.70183 55.8325 5.00287 55.9658C2.97079 56.099 1.33845 54.5333 1.03864 52.6678C0.705507 50.6024 1.77152 48.8368 3.87023 48.2039C5.40263 47.7375 7.00165 47.5043 8.53404 47.0379C9.00042 46.9047 9.66668 46.1718 9.60006 45.9386C9.40018 45.339 8.90049 44.5728 8.36748 44.4395C6.80177 44.0398 5.20275 44.0398 4.56981 45.9719C3.47048 45.7387 2.5044 45.5388 1.4717 45.3057C2.03802 43.2403 3.30391 41.9077 5.36932 41.7412C7.03496 41.6079 8.80055 41.6412 10.4329 41.9411C11.9986 42.2409 13.0646 43.3069 13.0646 45.1058C13.0646 46.8381 12.998 48.537 13.0979 50.2693C13.1979 52.0349 13.3977 53.7671 13.5643 55.6993ZM9.53343 49.07C8.33417 49.3365 7.26815 49.5697 6.20214 49.8695C5.03619 50.2027 4.3033 50.9355 4.73637 52.2014C5.13612 53.3674 6.1022 53.7338 7.26815 53.5006C9.23361 53.1009 9.89987 51.835 9.53343 49.07Z" fill="white"/>
<path d="M67.6639 45.2733C68.2303 43.2412 69.4628 42.042 71.4949 41.7422C72.2611 41.6422 73.0273 41.4757 73.7935 41.509C78.2241 41.6089 79.3568 42.8082 79.3568 47.2055C79.3568 48.6046 79.2901 49.9705 79.3568 51.3696C79.4234 52.7354 79.6233 54.1013 79.7898 55.6336C78.5906 55.4005 76.9249 56.633 76.2254 54.8008C74.5264 55.2339 72.9274 55.8668 71.295 55.9668C69.0298 56.1 67.4974 54.5676 67.1976 52.4356C66.931 50.5035 68.0304 48.8045 70.1291 48.1716C71.6615 47.7052 73.2605 47.472 74.7929 47.0056C75.226 46.8724 75.8589 46.3727 75.8589 46.0728C75.8256 45.5398 75.3925 44.6737 75.0594 44.6071C73.9601 44.4738 72.2944 44.2073 71.7947 44.7736C70.3956 46.406 69.1297 45.5398 67.6639 45.2733ZM75.7257 49.071C74.593 49.3375 73.4604 49.5374 72.3611 49.8705C71.3617 50.1703 70.4955 50.8366 70.8287 52.0359C71.1951 53.2684 72.1612 53.7348 73.4271 53.5016C75.4258 53.1352 76.2587 51.6028 75.7257 49.071Z" fill="white"/>
<path d="M108.84 49.7366C105.841 49.7366 102.81 49.7366 99.6785 49.7366C99.7785 51.4689 100.311 52.7681 101.877 53.2678C103.543 53.8008 104.675 53.0346 105.242 51.4023C106.408 51.6355 107.474 51.8686 108.54 52.0685C108.307 54.7002 104.909 56.699 101.144 55.9328C97.3799 55.1999 95.3812 51.6355 96.1474 47.3048C96.8136 43.4405 99.7785 40.9753 103.143 41.5083C107.107 42.108 109.339 45.2394 108.84 49.7366ZM105.208 47.538C105.308 45.6058 104.342 44.3732 102.743 44.2733C100.978 44.14 99.945 45.2727 99.8451 47.538C101.644 47.538 103.41 47.538 105.208 47.538Z" fill="white"/>
<path d="M140.419 55.6338C139.52 55.6338 138.82 55.6338 137.921 55.6338C137.921 52.6356 137.921 49.7041 137.921 46.7726C137.921 46.3395 137.988 45.9064 138.054 45.1402C139.02 45.4401 139.82 45.7066 141.019 46.1063C143.284 44.7072 144.384 44.7405 146.116 46.2063C147.915 45.8731 149.347 45.4067 150.78 45.3734C152.079 45.3734 152.912 46.4061 152.945 47.7053C153.045 50.3037 152.978 52.9021 152.978 55.6005C152.146 55.6005 151.413 55.6005 150.48 55.6005C150.48 53.5351 150.48 51.5363 150.48 49.5709C150.48 48.5048 150.447 47.2723 149.047 47.1723C147.615 47.1057 146.982 48.1384 146.915 49.4376C146.849 51.4697 146.882 53.5018 146.882 55.6338C145.883 55.6338 145.083 55.6338 144.084 55.6338C144.084 54.3013 144.084 52.9688 144.084 51.6696C144.084 50.7368 144.217 49.7707 144.017 48.9046C143.884 48.2716 143.184 47.2056 142.885 47.2723C142.118 47.4055 141.086 47.9052 140.852 48.5048C140.453 49.6708 140.486 51.0033 140.419 52.2359C140.353 53.3352 140.419 54.4345 140.419 55.6338Z" fill="white"/>
<path d="M50.9413 44.7727C50.2417 44.6728 49.7753 44.6061 49.209 44.5395C49.209 43.6734 49.209 42.8739 49.209 41.9744C49.742 41.8745 50.2084 41.8078 50.9413 41.7079C50.2084 38.9763 52.1738 38.1101 54.3725 37.144C54.3725 38.6764 54.3725 40.1422 54.3725 41.7079C55.3386 41.8078 56.0714 41.8745 56.9043 41.9744C56.9043 42.8406 56.9043 43.6401 56.9043 44.5728C56.1381 44.6394 55.4052 44.7394 54.4724 44.8393C54.4724 47.1712 54.4058 49.5031 54.5057 51.8017C54.5724 53.1009 54.8389 53.1676 57.0042 53.1676C57.0375 54.2669 58.2035 55.666 55.9715 56.0325C53.2732 56.4988 51.2744 55.5661 51.1078 53.4341C50.9413 51.402 51.0079 49.3366 51.0079 47.2712C50.9413 46.4717 50.9413 45.7055 50.9413 44.7727Z" fill="white"/>
<path d="M58.837 41.8743C59.8697 41.8743 60.8691 41.8743 61.9018 41.8743C62.0018 42.374 62.1017 42.8403 62.2349 43.5732C63.7007 41.5078 65.3997 40.9415 67.6316 42.2407C67.3651 43.1068 67.0986 44.0396 66.7988 45.039C66.4324 45.0057 66.1659 45.0057 65.8994 44.9391C64.0005 44.4727 62.9012 45.039 62.668 46.9378C62.4015 49.2364 62.4348 51.5683 62.3349 53.9002C62.3016 54.4332 62.3349 54.9995 62.3349 55.6325C61.1023 55.6325 60.003 55.6325 58.8037 55.6325C58.837 51.1019 58.837 46.6047 58.837 41.8743Z" fill="white"/>
<path d="M136.689 50.6039C136.689 53.702 134.357 56.1005 131.392 56.0339C128.094 55.9673 126.062 53.8353 126.095 50.4707C126.128 47.3726 128.26 45.1739 131.292 45.1739C134.557 45.1406 136.689 47.3059 136.689 50.6039ZM133.99 50.5706C133.99 48.6718 132.991 47.3392 131.459 47.2726C129.926 47.206 128.727 48.6384 128.694 50.5706C128.66 52.4694 129.826 53.8353 131.425 53.8019C133.024 53.7686 133.99 52.5361 133.99 50.5706Z" fill="white"/>
<path d="M125.262 48.2715C124.13 48.538 123.13 49.1376 122.131 47.6718C121.431 46.6391 119.333 47.1388 119 48.438C118.7 49.7705 118.666 51.3029 119.033 52.6021C119.433 54.0346 121.731 54.3677 122.398 53.1351C123.264 51.5694 124.263 52.0025 125.429 52.3689C124.829 54.9674 122.964 56.2999 120.365 56.0334C117.6 55.7335 116.001 53.9346 115.901 50.9698C115.802 47.6385 117.201 45.673 119.966 45.24C122.631 44.7736 124.563 45.8729 125.262 48.2715Z" fill="white"/>
<path d="M142.953 41.408C140.022 40.2087 137.523 38.9761 135.691 36.7442C133.759 34.4123 134.392 31.2142 137.157 29.9483C138.789 29.1821 140.588 28.7158 142.287 28.0828C144.219 27.3499 144.519 26.2839 142.787 25.2512C140.255 23.7521 137.457 22.6861 134.725 21.5202C134.125 21.2537 133.459 21.187 132.859 20.9205C137.423 21.5202 141.987 22.1531 145.718 25.2179C147.384 26.5504 147.251 27.8829 145.285 28.7158C143.353 29.5486 141.321 30.0816 139.355 30.8145C135.824 32.1137 135.258 34.9786 138.056 37.5437C139.455 38.8429 141.121 39.9755 142.953 41.408Z" fill="white"/>
<path d="M110.806 52.1675C111.972 52.1675 113.038 52.1675 114.237 52.1675C114.237 53.3001 114.237 54.3661 114.237 55.5987C113.138 55.5987 112.038 55.5987 110.806 55.5987C110.806 54.4994 110.806 53.4334 110.806 52.1675Z" fill="white"/>
</svg>
