<svg width="11" height="12" viewBox="0 0 11 12" fill="none" xmlns="http://www.w3.org/2000/svg">
<path d="M10.5644 0H0.447435C0.19886 0 0 0.202052 0 0.454617V11.5296C0 11.6938 0.0870013 11.8453 0.223718 11.9211C0.360434 11.9968 0.534437 11.9968 0.671153 11.9211L2.12532 11.0497L3.59191 11.9337C3.72863 12.0221 3.90263 12.0221 4.05177 11.9337L5.50594 11.0624L6.9601 11.9337C7.03468 11.9716 7.10925 11.9968 7.18382 11.9968C7.25839 11.9968 7.34539 11.9716 7.40754 11.9337L8.8617 11.0624L10.3283 11.9337C10.465 12.0221 10.639 12.0221 10.7757 11.9337C10.9124 11.8579 10.9994 11.7064 10.9994 11.5422V0.454617C11.0119 0.202052 10.813 0 10.5644 0ZM3.21905 2.3236V1.85635C3.21905 1.80584 3.25633 1.76796 3.30605 1.76796H3.75348C3.8032 1.76796 3.84049 1.80584 3.84049 1.85635V2.31097C4.30035 2.33623 4.67321 2.70245 4.7105 3.15706C4.7105 3.20758 4.67321 3.25809 4.6235 3.25809H4.16363C4.12635 3.25809 4.08906 3.23283 4.07663 3.19495C4.05177 3.05604 3.91506 2.94238 3.76591 2.94238H3.36819C3.13205 2.94238 2.92076 3.11918 2.8959 3.34649C2.87104 3.62431 3.08233 3.85162 3.34333 3.85162H3.67891C4.31278 3.85162 4.80993 4.40726 4.74778 5.0513C4.69807 5.55643 4.30035 5.93528 3.81563 6.02368V6.50355C3.81563 6.55406 3.77834 6.59195 3.72863 6.59195H3.28119C3.23148 6.59195 3.19419 6.55406 3.19419 6.50355V6.04893C2.73433 6.02368 2.36146 5.65746 2.32418 5.20284C2.32418 5.15233 2.36146 5.10182 2.41118 5.10182H2.87104C2.90833 5.10182 2.94561 5.12707 2.95804 5.16496C2.9829 5.30387 3.10719 5.41752 3.26876 5.41752H3.66648C3.90263 5.41752 4.11392 5.24073 4.13878 5.01342C4.16363 4.7356 3.95234 4.50829 3.69134 4.50829H3.39305C2.83376 4.50829 2.32418 4.09155 2.27446 3.52328C2.22475 2.91713 2.65975 2.39937 3.21905 2.3236ZM8.4267 8.73875H2.58518C2.37389 8.73875 2.19989 8.56196 2.19989 8.34728C2.19989 8.1326 2.37389 7.9558 2.58518 7.9558H8.4267C8.63799 7.9558 8.81199 8.1326 8.81199 8.34728C8.81199 8.56196 8.63799 8.73875 8.4267 8.73875ZM8.4267 5.99842H6.26409C6.0528 5.99842 5.8788 5.83425 5.8788 5.61957C5.8788 5.40489 6.0528 5.2281 6.26409 5.2281H8.4267C8.63799 5.2281 8.81199 5.40489 8.81199 5.61957C8.81199 5.83425 8.63799 5.99842 8.4267 5.99842ZM8.4267 3.27072H6.26409C6.0528 3.27072 5.8788 3.09392 5.8788 2.87924C5.8788 2.66456 6.0528 2.48777 6.26409 2.48777H8.4267C8.63799 2.48777 8.81199 2.66456 8.81199 2.87924C8.81199 3.09392 8.63799 3.27072 8.4267 3.27072Z" fill="#FCA453"/>
</svg>
