<svg width="16" height="16" viewBox="0 0 16 16" fill="none" xmlns="http://www.w3.org/2000/svg">
<path d="M11.693 0.0690998L5.30005 2.58664V9.47673L11.6933 11.9943C12.4221 12.2924 13.1839 11.7624 13.1839 10.9674L13.1838 1.09601C13.2169 0.334175 12.4219 -0.195862 11.6932 0.0690998H11.693Z" fill="#3FE1A1"/>
<path d="M13.9456 3.87847V8.21775C15.0387 8.11838 15.8999 7.19084 15.8999 6.06467C15.8999 4.93838 15.0387 3.97779 13.9456 3.87842V3.87847Z" fill="#3FE1A1"/>
<path d="M4.80321 10.1725H3.44513C3.08079 10.1725 2.7495 10.1393 2.41821 10.0399L3.44513 15.0087C3.5445 15.5387 4.00821 15.903 4.57141 15.903C5.3002 15.903 5.83012 15.2406 5.6977 14.5118L4.80321 10.1725Z" fill="#3FE1A1"/>
<path d="M2.71628 8.48301H1.02691C1.65632 9.11243 2.51753 9.47676 3.44507 9.47676H4.57136L4.57125 2.58667H3.44496C2.48437 2.58667 1.65621 2.98417 1.0268 3.58042H2.71617C2.91492 3.58042 3.04746 3.74601 3.04746 3.91171C3.04746 4.11046 2.88187 4.243 2.71617 4.243L0.496875 4.24288C0.364337 4.4748 0.264962 4.7066 0.165587 4.93851H2.71617C2.91492 4.93851 3.04746 5.1041 3.04746 5.2698C3.04746 5.46855 2.88187 5.60108 2.71617 5.60108H0.033163C1.96312e-07 5.79983 0 5.93226 0 6.03163C0 6.13101 1.96312e-07 6.26355 0.033163 6.39597H2.71629C2.91504 6.39597 3.04757 6.56156 3.04757 6.72726C3.04757 6.92601 2.88199 7.05855 2.71629 7.05855H0.165587C0.231799 7.32351 0.364337 7.55542 0.496875 7.75417H2.71629C2.91504 7.75417 3.04757 7.91976 3.04757 8.08546C3.04746 8.31726 2.91504 8.48296 2.71629 8.48296L2.71628 8.48301Z" fill="#3FE1A1"/>
</svg>
