<svg width="18" height="18" viewBox="0 0 18 18" fill="none" xmlns="http://www.w3.org/2000/svg">
<path d="M17.9945 16.8709C17.9945 17.1691 17.8761 17.4552 17.6651 17.6661C17.4542 17.8771 17.1681 17.9956 16.8698 17.9956H1.12468C0.722889 17.9956 0.351552 17.7812 0.150721 17.4332C-0.0502404 17.0853 -0.0502404 16.6566 0.150721 16.3085C0.351552 15.9606 0.722889 15.7463 1.12468 15.7463H3.37396V10.6854C3.37396 10.2836 3.58825 9.91236 3.93632 9.7114C4.28426 9.51057 4.71296 9.51057 5.0609 9.7114C5.40894 9.91236 5.62326 10.2836 5.62326 10.6854V15.7463H7.87254V10.6854C7.87254 10.2836 8.08697 9.91236 8.4349 9.7114C8.78294 9.51057 9.21155 9.51057 9.55962 9.7114C9.90756 9.91236 10.122 10.2836 10.122 10.6854V15.7463H12.3713V10.6854C12.3713 10.2836 12.5855 9.91236 12.9336 9.7114C13.2816 9.51057 13.7103 9.51057 14.0582 9.7114C14.4062 9.91236 14.6206 10.2836 14.6206 10.6854V15.7463H16.8698C17.1681 15.7463 17.4542 15.8648 17.6651 16.0757C17.8761 16.2866 17.9945 16.5726 17.9945 16.8709V16.8709ZM0.0543155 7.0921C-0.0182515 6.86525 -0.016812 6.62115 0.0583687 6.39521C0.133419 6.16915 0.278419 5.97277 0.472315 5.83443L8.34489 0.21116C8.53604 0.0738723 8.7655 0 9.001 0C9.23635 0 9.46583 0.0738723 9.65699 0.21116L17.5296 5.83443C17.7901 6.02075 17.9589 6.30943 17.9934 6.62794C18.028 6.94632 17.9251 7.26444 17.7105 7.5024C17.4959 7.74023 17.1901 7.87531 16.8698 7.87373H1.12464C0.886418 7.8736 0.654465 7.7979 0.462136 7.65734C0.269803 7.51692 0.127016 7.31898 0.0543152 7.0921L0.0543155 7.0921ZM7.5915 4.49987C7.5915 4.87265 7.73964 5.23023 8.00324 5.49382C8.26696 5.75754 8.62444 5.90569 8.99732 5.90569C9.3702 5.90569 9.72768 5.75755 9.9914 5.49382C10.255 5.23023 10.4031 4.87261 10.4031 4.49987C10.4031 4.12696 10.255 3.76938 9.9914 3.50579C9.72768 3.24207 9.3702 3.09406 8.99732 3.09406C8.62468 3.09445 8.26733 3.24272 8.00374 3.50629C7.74028 3.76989 7.592 4.1271 7.5915 4.49987Z" fill="#12B4FF"/>
</svg>
