<svg width="13" height="14" viewBox="0 0 13 14" fill="none" xmlns="http://www.w3.org/2000/svg">
<path fill-rule="evenodd" clip-rule="evenodd" d="M6.3 0C6.68661 0 7 0.313404 7 0.7V0.748559C9.59175 1.11101 11.5919 3.45833 11.5919 6.3V7.05194C11.5919 7.94248 11.7525 8.82483 12.0651 9.65167L12.5521 10.94C12.7259 11.3998 12.4058 11.9 11.9379 11.9H0.662144C0.194159 11.9 -0.125839 11.3998 0.0479642 10.94L0.534961 9.65167C0.847504 8.82483 1.00808 7.94248 1.00808 7.05194V6.3C1.00808 3.45833 3.00822 1.11101 5.6 0.748559V0.7C5.6 0.313404 5.91339 0 6.3 0ZM2.33106 6.3C2.33106 3.9804 4.10801 2.1 6.3 2.1C8.49198 2.1 10.2689 3.9804 10.2689 6.3V7.05194C10.2689 8.12056 10.4616 9.17938 10.8367 10.1716L10.9608 10.5H1.63918L1.76331 10.1716C2.13837 9.17938 2.33106 8.12056 2.33106 7.05194V6.3Z" fill="white"/>
<path d="M5.5999 12.6C5.21329 12.6 4.8999 12.9134 4.8999 13.3C4.8999 13.6866 5.21329 14 5.5999 14H6.9999C7.38651 14 7.6999 13.6866 7.6999 13.3C7.6999 12.9134 7.38651 12.6 6.9999 12.6H5.5999Z" fill="white"/>
</svg>
