<svg width="11" height="12" viewBox="0 0 11 12" fill="none" xmlns="http://www.w3.org/2000/svg">
<path d="M2.77509 0.166687C2.70829 0.166745 2.64424 0.192704 2.597 0.238864C2.54977 0.285024 2.52321 0.347614 2.52315 0.412894V2.50566C2.52321 2.57094 2.54977 2.63352 2.597 2.67968C2.64424 2.72584 2.70829 2.7518 2.77509 2.75186C2.80817 2.75186 2.84093 2.74549 2.8715 2.73312C2.90206 2.72075 2.92984 2.70261 2.95323 2.67975C2.97663 2.65689 2.99519 2.62974 3.00785 2.59987C3.02051 2.57 3.02702 2.53799 3.02702 2.50566V0.412894C3.02705 0.380554 3.02056 0.348525 3.00791 0.318641C2.99526 0.288757 2.9767 0.261603 2.9533 0.238735C2.9299 0.215867 2.90211 0.197732 2.87153 0.185369C2.84095 0.173006 2.80818 0.166658 2.77509 0.166687ZM8.06578 0.166687C7.99898 0.166745 7.93493 0.192704 7.8877 0.238864C7.84047 0.285024 7.8139 0.347614 7.81384 0.412894V2.50566C7.8139 2.57094 7.84047 2.63352 7.8877 2.67968C7.93493 2.72584 7.99898 2.7518 8.06578 2.75186C8.09887 2.75186 8.13163 2.74549 8.16219 2.73312C8.19276 2.72075 8.22053 2.70261 8.24393 2.67975C8.26732 2.65689 8.28588 2.62974 8.29854 2.59987C8.3112 2.57 8.31772 2.53799 8.31772 2.50566V0.412894C8.31775 0.380554 8.31125 0.348525 8.2986 0.318641C8.28595 0.288757 8.2674 0.261603 8.24399 0.238735C8.22059 0.215867 8.19281 0.197732 8.16223 0.185369C8.13165 0.173006 8.09888 0.166658 8.06578 0.166687ZM1.01152 0.905528C0.878499 0.905209 0.746723 0.930578 0.623764 0.980179C0.500804 1.02978 0.389085 1.10263 0.295024 1.19455C0.200963 1.28648 0.126413 1.39565 0.0756583 1.51582C0.0249035 1.63598 -0.00105575 1.76476 -0.000729382 1.89475V4.10666H10.8326V1.89409C10.8329 1.76411 10.8069 1.63536 10.7561 1.51523C10.7053 1.39509 10.6308 1.28593 10.5367 1.19402C10.4427 1.10211 10.331 1.02926 10.208 0.979638C10.0851 0.930017 9.95335 0.904608 9.82035 0.904869H8.56966V1.95499C8.64889 2.02408 8.7123 2.10875 8.75572 2.20346C8.79913 2.29817 8.82158 2.40078 8.8216 2.50455C8.8216 2.60155 8.80205 2.6976 8.76406 2.78721C8.72608 2.87683 8.67041 2.95825 8.60022 3.02684C8.53004 3.09543 8.44672 3.14983 8.35502 3.18695C8.26332 3.22407 8.16504 3.24318 8.06578 3.24318C7.86533 3.24318 7.67308 3.16536 7.53134 3.02684C7.3896 2.88832 7.30997 2.70045 7.30997 2.50455C7.30999 2.4008 7.33243 2.29822 7.3758 2.20352C7.41918 2.10881 7.48252 2.02412 7.56168 1.95499V0.904869H3.27491V1.95125C3.35544 2.02048 3.41993 2.10571 3.46408 2.20124C3.50822 2.29676 3.531 2.4004 3.5309 2.50521C3.5309 2.70111 3.45127 2.88898 3.30953 3.0275C3.16778 3.16602 2.97554 3.24384 2.77509 3.24384C2.57463 3.24384 2.38239 3.16602 2.24065 3.0275C2.0989 2.88898 2.01927 2.70111 2.01927 2.50521C2.01916 2.40232 2.04113 2.30054 2.08374 2.20645C2.12636 2.11236 2.18869 2.02804 2.26671 1.95894V0.904869L1.01152 0.905528ZM-0.000729382 4.59863V10.0121C-0.00105575 10.1421 0.0249035 10.2709 0.0756583 10.3911C0.126413 10.5112 0.200963 10.6204 0.295024 10.7123C0.389085 10.8042 0.500804 10.8771 0.623764 10.9267C0.746723 10.9763 0.878499 11.0017 1.01152 11.0013H9.82147C9.95449 11.0016 10.0863 10.9762 10.2092 10.9266C10.3321 10.877 10.4438 10.8042 10.5379 10.7122C10.632 10.6203 10.7065 10.5112 10.7573 10.391C10.808 10.2709 10.834 10.1421 10.8337 10.0121V4.59863H-0.000729382Z" fill="#94A2BE"/>
</svg>
