<svg width="7" height="12" viewBox="0 0 7 12" fill="none" xmlns="http://www.w3.org/2000/svg">
<path d="M5.3315 0.823114H4.36399V0.324913C4.36399 0.151626 4.21989 0 4.05521 0C3.89053 0 3.74643 0.151626 3.74643 0.324913V0.823114H2.77892C2.40839 0.823114 2.09961 1.14803 2.09961 1.53792V9.72574C2.09961 10.1156 2.40839 10.4405 2.77892 10.4405H3.74643V11.0687C3.74643 11.242 3.89053 11.3936 4.05521 11.3936C4.21989 11.3936 4.36399 11.242 4.36399 11.0687V10.4405H5.3315C5.70203 10.4405 6.01081 10.1156 6.01081 9.72574V1.53792C6.01081 1.14803 5.72262 0.823114 5.3315 0.823114Z" fill="#94A2BE"/>
<path d="M2.77901 10.6137C2.32613 10.6137 1.93501 10.2238 1.93501 9.72562V4.0288H1.70858V3.6389C1.70858 3.50894 1.60565 3.40063 1.48214 3.40063C1.35863 3.40063 1.23512 3.50894 1.23512 3.6389V4.0288H0.514632C0.226438 4.0288 0 4.26707 0 4.57032V10.7437C0 11.0469 0.226438 11.2852 0.514632 11.2852H1.23512V11.7617C1.23512 11.8917 1.33804 12 1.46155 12C1.58507 12 1.68799 11.8917 1.68799 11.7617V11.2852H2.42906C2.71725 11.2852 2.94369 11.0469 2.94369 10.7437V10.6137H2.77901Z" fill="#94A2BE"/>
</svg>
