<svg width="14" height="11" viewBox="0 0 14 11" fill="none" xmlns="http://www.w3.org/2000/svg">
<path d="M2.25 3.71429H3V2.21429H2.25C2.1837 2.21429 2.12011 2.24063 2.07322 2.28752C2.02634 2.3344 2 2.39799 2 2.46429V3.46429C2 3.5306 2.02634 3.59419 2.07322 3.64107C2.12011 3.68796 2.1837 3.71429 2.25 3.71429Z" fill="#0DCAA4"/>
<path d="M11 3.71429H11.75C11.8163 3.71429 11.8799 3.68796 11.9268 3.64107C11.9737 3.59419 12 3.5306 12 3.46429V2.46429C12 2.39799 11.9737 2.3344 11.9268 2.28752C11.8799 2.24063 11.8163 2.21429 11.75 2.21429H11V3.71429Z" fill="#0DCAA4"/>
<path d="M7 6.71426C7.82843 6.71426 8.5 6.04269 8.5 5.21426C8.5 4.38584 7.82843 3.71426 7 3.71426C6.17157 3.71426 5.5 4.38584 5.5 5.21426C5.5 6.04269 6.17157 6.71426 7 6.71426Z" fill="#0DCAA4"/>
<path d="M5.25 10.4643C5.25 10.0665 5.09196 9.68494 4.81066 9.40363C4.52936 9.12233 4.14782 8.96429 3.75 8.96429H3.5V10.4643C3.5 10.5306 3.52634 10.5942 3.57322 10.6411C3.62011 10.688 3.6837 10.7143 3.75 10.7143H5.25V10.4643Z" fill="#0DCAA4"/>
<path d="M10.25 8.96429C9.85218 8.96429 9.47064 9.12233 9.18934 9.40363C8.90804 9.68494 8.75 10.0665 8.75 10.4643V10.7143H10.25C10.3163 10.7143 10.3799 10.688 10.4268 10.6411C10.4737 10.5942 10.5 10.5306 10.5 10.4643V8.96429H10.25Z" fill="#0DCAA4"/>
<path d="M13.75 0.714279H0.25C0.183696 0.714279 0.120107 0.740618 0.0732234 0.787503C0.0263393 0.834387 0 0.897975 0 0.964279V4.96428C0 5.03058 0.0263393 5.09417 0.0732234 5.14106C0.120107 5.18794 0.183696 5.21428 0.25 5.21428H3V4.21428H1.75C1.6837 4.21428 1.62011 4.18794 1.57322 4.14106C1.52634 4.09417 1.5 4.03058 1.5 3.96428V1.96428C1.5 1.89798 1.52634 1.83439 1.57322 1.7875C1.62011 1.74062 1.6837 1.71428 1.75 1.71428H12.25C12.3163 1.71428 12.3799 1.74062 12.4268 1.7875C12.4737 1.83439 12.5 1.89798 12.5 1.96428V3.96428C12.5 4.03058 12.4737 4.09417 12.4268 4.14106C12.3799 4.18794 12.3163 4.21428 12.25 4.21428H11V5.21428H13.75C13.8163 5.21428 13.8799 5.18794 13.9268 5.14106C13.9737 5.09417 14 5.03058 14 4.96428V0.964279C14 0.897975 13.9737 0.834387 13.9268 0.787503C13.8799 0.740618 13.8163 0.714279 13.75 0.714279Z" fill="#0DCAA4"/>
<path d="M3.5 2.21429V8.46429H3.75C4.28043 8.46429 4.78914 8.67501 5.16421 9.05008C5.53929 9.42515 5.75 9.93386 5.75 10.4643V10.7143H8.25V10.4643C8.25 9.93386 8.46071 9.42515 8.83579 9.05008C9.21086 8.67501 9.71957 8.46429 10.25 8.46429H10.5V2.21429H3.5ZM7 7.21429C6.60444 7.21429 6.21776 7.097 5.88886 6.87723C5.55996 6.65747 5.30362 6.34511 5.15224 5.97966C5.00087 5.61421 4.96126 5.21208 5.03843 4.82411C5.1156 4.43615 5.30608 4.07979 5.58579 3.80008C5.86549 3.52038 6.22186 3.32989 6.60982 3.25272C6.99778 3.17555 7.39991 3.21516 7.76537 3.36654C8.13082 3.51791 8.44318 3.77426 8.66294 4.10315C8.8827 4.43205 9 4.81873 9 5.21429C9 5.74473 8.78929 6.25343 8.41421 6.62851C8.03914 7.00358 7.53043 7.21429 7 7.21429Z" fill="#0DCAA4"/>
</svg>
