<svg width="31" height="31" viewBox="0 0 31 31" fill="none" xmlns="http://www.w3.org/2000/svg">
<circle opacity="0.1" cx="15.5" cy="15.5" r="15.5" fill="#07CDA5"/>
<circle opacity="0.1" cx="15.5" cy="15.5" r="11.5" fill="#07CDA5"/>
<path d="M16 9C14.8133 9 13.6533 9.35189 12.6666 10.0112C11.6799 10.6705 10.9109 11.6075 10.4567 12.7039C10.0026 13.8003 9.88378 15.0067 10.1153 16.1705C10.3468 17.3344 10.9182 18.4035 11.7574 19.2426C12.5965 20.0818 13.6656 20.6532 14.8295 20.8847C15.9933 21.1162 17.1997 20.9974 18.2961 20.5433C19.3925 20.0891 20.3295 19.3201 20.9888 18.3334C21.6481 17.3467 22 16.1867 22 15C22 13.4087 21.3679 11.8826 20.2426 10.7574C19.1174 9.63214 17.5913 9 16 9V9ZM19.1392 13.428L15.2452 17.322C15.1897 17.3771 15.1146 17.408 15.0364 17.408C14.9582 17.408 14.8831 17.3771 14.8276 17.322L12.8488 15.3444C12.7937 15.2889 12.7628 15.2138 12.7628 15.1356C12.7628 15.0574 12.7937 14.9823 12.8488 14.9268L12.9604 14.8152C13.0159 14.7601 13.091 14.7292 13.1692 14.7292C13.2474 14.7292 13.3225 14.7601 13.378 14.8152L15.04 16.4724L18.61 12.8976C18.6655 12.8425 18.7406 12.8116 18.8188 12.8116C18.897 12.8116 18.9721 12.8425 19.0276 12.8976L19.1392 13.0092C19.1947 13.0648 19.2258 13.1401 19.2258 13.2186C19.2258 13.2971 19.1947 13.3724 19.1392 13.428V13.428Z" fill="#07CDA5"/>
</svg>
