<svg width="10" height="11" viewBox="0 0 10 11" fill="none" xmlns="http://www.w3.org/2000/svg">
<path fill-rule="evenodd" clip-rule="evenodd" d="M1.93368 8.35149C1.93368 8.64125 2.04959 8.91814 2.25566 9.1242C2.46172 9.33026 2.73646 9.44618 3.02837 9.44618H7.18591V10.0772C7.18591 10.3198 7.08932 10.5516 6.9176 10.7212C6.74589 10.8929 6.51621 10.9895 6.27368 10.9895H0.912231C0.669684 10.9895 0.437865 10.8929 0.268308 10.7212C0.0965924 10.5494 0 10.3198 0 10.0772V2.63818C0 2.39564 0.0965898 2.16382 0.268308 1.99426C0.440023 1.82254 0.669697 1.72595 0.912231 1.72595H1.93609V8.35384L1.93368 8.35149Z" fill="#94A2BE"/>
<path fill-rule="evenodd" clip-rule="evenodd" d="M8.38751 0C8.63006 0 8.86188 0.0965898 9.03143 0.268308C9.20315 0.440023 9.29974 0.669697 9.29974 0.912231V8.35127C9.29974 8.59382 9.20315 8.82564 9.03143 8.9952C8.85972 9.16691 8.63004 9.26351 8.38751 9.26351H3.02606C2.78351 9.26351 2.5517 9.16692 2.38214 8.9952C2.21042 8.82348 2.11383 8.59381 2.11383 8.35127V0.912231C2.11383 0.669684 2.21042 0.437865 2.38214 0.268308C2.55385 0.0965924 2.78353 0 3.02606 0H8.38751Z" fill="#94A2BE"/>
</svg>
