<svg width="18" height="14" viewBox="0 0 18 14" fill="none" xmlns="http://www.w3.org/2000/svg">
<path d="M0.506471 0.600623C0.367614 0.614582 0.238926 0.679724 0.145275 0.783477C0.0517398 0.887229 1.58945e-05 1.02204 0.000141243 1.16189V3.17126L17.9998 3.17114V1.16189C17.9993 1.01224 17.9393 0.868997 17.8332 0.763745C17.727 0.658486 17.5835 0.599754 17.4341 0.600636H0.5603C0.542347 0.599756 0.524392 0.599756 0.506439 0.600636L0.506471 0.600623ZM0 4.29781V5.28376H18V4.29781H0ZM0 6.41056V12.9943H0.000125549C-0.000502188 13.1438 0.0582548 13.2873 0.163338 13.3933C0.268297 13.4995 0.411171 13.5593 0.560339 13.56H17.4341C17.5843 13.5608 17.7285 13.5015 17.8348 13.3953C17.941 13.2891 18.0005 13.1447 17.9999 12.9943V6.41058L0 6.41056ZM3.57146 7.90708H3.57158C3.59092 7.90607 3.61038 7.90607 3.62984 7.90708H6.06211H6.06198C6.26299 7.90733 6.44854 8.01486 6.54898 8.18928C6.64942 8.36371 6.64942 8.57838 6.54898 8.75281C6.44854 8.92724 6.26298 9.03476 6.06198 9.03501H3.62984C3.42884 9.0452 3.23763 8.94723 3.12829 8.77808C3.01881 8.60881 3.00776 8.39414 3.09916 8.21443C3.19056 8.03484 3.3706 7.91776 3.5716 7.90707L3.57146 7.90708ZM11.5635 8.12829C11.983 8.12829 12.3643 8.29328 12.6577 8.55525C12.9511 8.29329 13.3323 8.12829 13.7519 8.12829C14.6598 8.12829 15.4085 8.87819 15.4085 9.78768C15.4085 10.6972 14.6598 11.4471 13.7519 11.4471C13.3323 11.4471 12.9511 11.2821 12.6577 11.0201C12.3643 11.2821 11.983 11.4471 11.5635 11.4471C10.6556 11.4471 9.90691 10.6972 9.90691 9.78768C9.90691 8.87819 10.6556 8.12829 11.5635 8.12829ZM11.5635 9.25509C11.2635 9.25509 11.0318 9.48711 11.0318 9.78768C11.0318 10.0882 11.2635 10.3203 11.5635 10.3203C11.8636 10.3203 12.0952 10.0882 12.0952 9.78768C12.0952 9.48711 11.8636 9.25509 11.5635 9.25509ZM13.7519 9.25509C13.4518 9.25509 13.2202 9.48711 13.2202 9.78768C13.2202 10.0882 13.4518 10.3203 13.7519 10.3203C14.0519 10.3203 14.2836 10.0882 14.2836 9.78768C14.2836 9.48711 14.0519 9.25509 13.7519 9.25509ZM3.57165 9.89997L3.57178 9.89985C3.59111 9.89884 3.61057 9.89884 3.63003 9.89985H6.0623H6.06218C6.21359 9.89657 6.35985 9.95442 6.46808 10.0604C6.5763 10.1665 6.63732 10.3117 6.63732 10.4633C6.63732 10.6149 6.5763 10.7602 6.46808 10.8662C6.35986 10.9722 6.21359 11.0301 6.06218 11.0267H3.63004C3.43179 11.0326 3.24509 10.9337 3.13838 10.7662C3.03166 10.5987 3.02074 10.3874 3.10963 10.2099C3.19839 10.0323 3.37404 9.91459 3.57178 9.89988L3.57165 9.89997Z" fill="#94A2BE"/>
</svg>
