<svg width="17" height="17" viewBox="0 0 17 17" fill="none" xmlns="http://www.w3.org/2000/svg">
<path d="M15.758 0H10C9.44772 0 9 0.447714 9 0.999999V4.47273C9 5.02501 9.44771 5.47273 10 5.47273H15.758C16.3103 5.47273 16.758 5.02501 16.758 4.47273V1C16.758 0.447715 16.3103 0 15.758 0Z" fill="#94A2BE"/>
<path d="M0.242188 9.28416C0.242188 9.83644 0.689903 10.2842 1.24219 10.2842H7.00023C7.55251 10.2842 8.00023 9.83644 8.00023 9.28416V6.91633V5.47297V1.00024C8.00023 0.447958 7.55251 0.000244141 7.00023 0.000244141H1.24219C0.689903 0.000244141 0.242188 0.447959 0.242188 1.00024V9.28416Z" fill="#94A2BE"/>
<path d="M15.758 6.47266H10C9.44772 6.47266 9 6.92037 9 7.47266V15.7566C9 16.3089 9.44771 16.7566 10 16.7566H15.758C16.3103 16.7566 16.758 16.3089 16.758 15.7566V7.47266C16.758 6.92037 16.3103 6.47266 15.758 6.47266Z" fill="#94A2BE"/>
<path d="M6.99925 11.2841H1.24121C0.688926 11.2841 0.241211 11.7318 0.241211 12.2841V15.7568C0.241211 16.3091 0.688926 16.7568 1.24121 16.7568H6.99925C7.55154 16.7568 7.99925 16.3091 7.99925 15.7568V12.2841C7.99925 11.7318 7.55154 11.2841 6.99925 11.2841Z" fill="#94A2BE"/>
</svg>
