<svg width="16" height="19" viewBox="0 0 16 19" fill="none" xmlns="http://www.w3.org/2000/svg">
<path d="M15.4613 11.6721H12.6016V13.7503H13.5929C13.8027 13.7503 13.9552 13.9251 13.9552 14.1193V15.9838C13.9552 16.1974 13.7836 16.3528 13.5929 16.3528H2.34493C2.13522 16.3528 1.9827 16.178 1.9827 15.9838V14.1193C1.9827 13.9056 2.15428 13.7503 2.34493 13.7503H3.33628V11.6721H0.476611C0.209709 11.6721 0 11.8858 0 12.1577V17.9648C0 18.2367 0.209709 18.4504 0.476611 18.4504H15.4422C15.7091 18.4504 15.9188 18.2367 15.9188 17.9648V12.1577C15.9379 11.8858 15.7282 11.6721 15.4613 11.6721Z" fill="#12B4FF"/>
<path d="M11.5716 6.9141C11.5716 6.37029 11.1331 5.92358 10.5993 5.92358H5.31847C4.78467 5.92358 4.34619 6.37029 4.34619 6.9141V15.3432H11.5525V6.9141H11.5716ZM8.38784 12.9737V13.5175C8.38784 13.5952 8.33065 13.6729 8.23532 13.6729H7.68246C7.6062 13.6729 7.52994 13.6147 7.52994 13.5175V12.9932C6.95801 12.9349 6.50047 12.4882 6.44327 11.9055C6.44327 11.8667 6.44327 11.8278 6.4814 11.789C6.50047 11.7502 6.55766 11.7307 6.59579 11.7307H7.14865C7.22491 11.7307 7.28211 11.7696 7.28211 11.8473C7.32023 12.0026 7.45368 12.1386 7.62526 12.1386H8.12094C8.4069 12.1386 8.63568 11.9249 8.6738 11.6725C8.69287 11.5171 8.63568 11.3811 8.54035 11.2646C8.44503 11.1481 8.29252 11.0898 8.15907 11.0898H7.73965C7.35836 11.0898 6.99614 10.915 6.72924 10.6237C6.46234 10.3324 6.34795 9.94391 6.38608 9.55548C6.44327 8.9534 6.91988 8.44843 7.52994 8.3319V7.78808C7.52994 7.7104 7.58714 7.63271 7.68246 7.63271H8.23532C8.31158 7.63271 8.38784 7.69098 8.38784 7.78808V8.31248C8.95977 8.37074 9.41732 8.81745 9.47451 9.4001C9.47451 9.43895 9.47451 9.47779 9.43638 9.51663C9.41732 9.55548 9.36012 9.5749 9.32199 9.5749H8.76913C8.69287 9.5749 8.63568 9.53606 8.63568 9.45837C8.59755 9.30299 8.4641 9.16704 8.29252 9.16704H7.79684C7.51088 9.16704 7.28211 9.38068 7.24398 9.63316C7.22491 9.78854 7.28211 9.92449 7.37743 10.041C7.47275 10.1576 7.62526 10.2158 7.75871 10.2158H8.12094C8.84538 10.2158 9.47451 10.7596 9.5317 11.4588C9.60796 12.1969 9.11229 12.8572 8.38784 12.9737Z" fill="#12B4FF"/>
<path d="M7.77756 4.93317C7.87288 5.0497 8.06352 5.0497 8.15885 4.93317L9.93184 2.77733C10.0653 2.60254 9.95091 2.35005 9.7412 2.35005H8.76891V0.271907C8.76891 0.135953 8.65452 0 8.50201 0H7.45346C7.30094 0 7.18656 0.116532 7.18656 0.271907V2.36947H6.21427C6.00456 2.36947 5.89017 2.62196 6.02363 2.79676L7.77756 4.93317Z" fill="#12B4FF"/>
</svg>
