<svg width="13" height="7" viewBox="0 0 13 7" fill="none" xmlns="http://www.w3.org/2000/svg">
<path d="M2.54717 3.11025L3.17909 4.94652C3.23832 5.0848 3.35677 5.20325 3.51475 5.20325C3.67273 5.22295 3.81088 5.14403 3.88995 5.00574L4.75879 3.54454L6.21989 6.7631C6.27912 6.90138 6.4174 7 6.57524 7H6.63447C6.81215 6.9803 6.95043 6.84202 6.97012 6.66434L7.60205 1.66872L8.27337 2.89291C8.33259 3.01136 8.47088 3.09042 8.62871 3.09042H11.9262C12.1434 3.09042 12.3211 2.91274 12.3211 2.69554C12.3211 2.47834 12.1434 2.30067 11.9262 2.30067L8.86577 2.30053L7.72053 0.207537C7.6416 0.0495554 7.46379 -0.0293667 7.3058 0.0100257C7.12812 0.0495556 7.00967 0.187704 6.98984 0.345682L6.37776 5.1636L5.17328 2.53744C5.11406 2.39915 4.97577 2.32023 4.83763 2.30053C4.69934 2.30053 4.56119 2.35976 4.48228 2.49805L3.67267 3.8802L3.21856 2.57696C3.15933 2.41898 3.02105 2.30053 2.84336 2.30053H0.394876C0.177668 2.30053 0 2.47821 0 2.6954C0 2.91261 0.177678 3.09028 0.394876 3.09028H2.54725L2.54717 3.11025Z" fill="#94A2BE"/>
</svg>
