<svg width="10" height="14" viewBox="0 0 10 14" fill="none" xmlns="http://www.w3.org/2000/svg">
<path d="M5.00004 0.75C4.49551 0.75 0.177635 0.798077 0.00959853 2.33655C0.0017868 2.36788 -0.00125688 2.40029 0.000467897 2.4327V3.52881C0.000873703 4.33313 0.273377 5.11085 0.768551 5.72116L2.72748 8.1395V12.7692C2.72627 12.8971 2.77374 13.0201 2.85927 13.1106C2.94479 13.201 3.06105 13.2513 3.18199 13.25C3.21882 13.2499 3.25544 13.245 3.29105 13.2356L6.92707 12.2741C7.02558 12.2482 7.11314 12.1883 7.17573 12.1038C7.23843 12.0193 7.27241 11.9151 7.27251 11.8077V8.13951L9.23602 5.72128V5.72117C9.72805 5.10927 9.99862 4.33229 9.99953 3.52882V2.43272C10.0013 2.40031 9.99821 2.3679 9.9904 2.33656C9.82229 0.798093 5.50459 0.750015 4.99996 0.750015L5.00004 0.75ZM5.00004 1.71154C5.89899 1.70296 6.79685 1.78345 7.6816 1.95193C8.16106 2.01825 8.62398 2.18148 9.04511 2.4327C8.69966 2.72117 7.23624 3.15386 5.00004 3.15386C2.76383 3.15386 1.30039 2.72117 0.954964 2.4327C1.37609 2.18148 1.83901 2.01825 2.31847 1.95193C3.20322 1.78345 4.10108 1.70296 5.00004 1.71154Z" fill="#94A2BE"/>
</svg>
