<svg width="18" height="18" viewBox="0 0 18 18" fill="none" xmlns="http://www.w3.org/2000/svg">
<path fill-rule="evenodd" clip-rule="evenodd" d="M6.37821 4.92099V4.14851C6.37821 2.7139 7.59211 1.5 9.02672 1.5C10.5165 1.5 11.7304 2.7139 11.7304 4.14851V4.92099C12.3925 4.92099 12.9443 5.41759 12.9443 6.13489V9.72142C12.9443 10.3835 12.3925 10.8801 11.7304 10.8801H6.37821C5.71608 10.8801 5.16431 10.3835 5.16431 9.72142V6.13489C5.16431 5.41759 5.71608 4.92099 6.37821 4.92099ZM7.09551 4.92099H11.0131V4.14851C11.0131 3.10014 10.1303 2.2173 9.02672 2.2173C7.97835 2.2173 7.09551 3.10014 7.09551 4.14851V4.92099ZM9.02672 6.96255C9.41296 6.96255 9.68884 7.23844 9.68884 7.5695C9.68884 7.84539 9.52331 8.0661 9.3026 8.17645V8.89376C9.3026 9.22482 8.80601 9.22482 8.80601 8.89376V8.17645C8.5853 8.0661 8.41977 7.84539 8.41977 7.5695C8.41977 7.23844 8.69565 6.96255 9.02672 6.96255Z" fill="#FF912B"/>
<path fill-rule="evenodd" clip-rule="evenodd" d="M1.68801 11.7079H16.4203C16.9169 11.7079 17.3584 12.1493 17.3584 12.6459V15.0185C17.3584 15.5703 16.9169 16.0117 16.4203 16.0117H1.68801C1.19142 16.0117 0.75 15.5703 0.75 15.0185V12.6459C0.75 12.1493 1.19142 11.7079 1.68801 11.7079ZM4.00546 12.7563V13.2528L4.3917 12.8666C4.61241 12.6459 4.99865 13.0321 4.72276 13.2528L4.3917 13.5839H4.8883C5.21936 13.5839 5.21936 14.0805 4.8883 14.0805H4.3917L4.72276 14.4667C4.99865 14.6875 4.61241 15.0737 4.3917 14.7978L4.00546 14.4667V14.9633C4.00546 15.2944 3.50886 15.2944 3.50886 14.9633V14.4667L3.1778 14.7978C2.95709 15.0737 2.57085 14.6875 2.79156 14.4667L3.1778 14.0805H2.6812C2.35014 14.0805 2.35014 13.5839 2.6812 13.5839H3.1778L2.79156 13.2528C2.57085 13.0321 2.95709 12.6459 3.1778 12.8666L3.50886 13.2528V12.7563C3.50886 12.4252 4.00546 12.4252 4.00546 12.7563ZM7.5368 12.7563V13.2528L7.92305 12.8666C8.14375 12.6459 8.47482 13.0321 8.25411 13.2528L7.86787 13.5839H8.41964C8.7507 13.5839 8.7507 14.0805 8.41964 14.0805H7.86787L8.25411 14.4667C8.47482 14.6875 8.14375 15.0737 7.92305 14.7978L7.5368 14.4667V14.9633C7.5368 15.2944 7.04021 15.2944 7.04021 14.9633V14.4667L6.65397 14.7978C6.43326 15.0737 6.1022 14.6875 6.3229 14.4667L6.70915 14.0805H6.15737C5.82631 14.0805 5.82631 13.5839 6.15737 13.5839H6.70915L6.3229 13.2528C6.1022 13.0321 6.43326 12.6459 6.65397 12.8666L7.04021 13.2528V12.7563C7.04021 12.4252 7.5368 12.4252 7.5368 12.7563ZM11.0681 12.7563V13.2528L11.3992 12.8666C11.6751 12.6459 12.0062 13.0321 11.7855 13.2528L11.3992 13.5839H11.951C12.282 13.5839 12.282 14.0805 11.951 14.0805H11.3992L11.7855 14.4667C12.0062 14.6875 11.6751 15.0737 11.3992 14.7978L11.0681 14.4667V14.9633C11.0681 15.2944 10.5716 15.2944 10.5716 14.9633V14.4667L10.1853 14.7978C9.9646 15.0737 9.63354 14.6875 9.85425 14.4667L10.1853 14.0805H9.68872C9.35765 14.0805 9.35765 13.5839 9.68872 13.5839H10.1853L9.85425 13.2528C9.63354 13.0321 9.9646 12.6459 10.1853 12.8666L10.5716 13.2528V12.7563C10.5716 12.4252 11.0681 12.4252 11.0681 12.7563ZM14.5995 12.7563V13.2528L14.9306 12.8666C15.1513 12.6459 15.5375 13.0321 15.3168 13.2528L14.9306 13.5839H15.4272C15.7582 13.5839 15.7582 14.0805 15.4272 14.0805H14.9306L15.3168 14.4667C15.5375 14.6875 15.1513 15.0737 14.9306 14.7978L14.5995 14.4667V14.9633C14.5995 15.2944 14.1029 15.2944 14.1029 14.9633V14.4667L13.7167 14.7978C13.4959 15.0737 13.1097 14.6875 13.3856 14.4667L13.7167 14.0805H13.2201C12.889 14.0805 12.889 13.5839 13.2201 13.5839H13.7167L13.3856 13.2528C13.1097 13.0321 13.4959 12.6459 13.7167 12.8666L14.1029 13.2528V12.7563C14.1029 12.4252 14.5995 12.4252 14.5995 12.7563Z" fill="#FF912B"/>
</svg>
