<svg width="14" height="18" viewBox="0 0 14 18" fill="none" xmlns="http://www.w3.org/2000/svg">
<path d="M13.9989 2.45463V15.5455C14.0177 16.1742 13.7994 16.7853 13.3913 17.2453C12.9833 17.7051 12.4187 17.9765 11.8213 18H7.77691C7.15822 18 6.56476 17.7414 6.12716 17.281C5.68956 16.8207 5.44374 16.1964 5.44374 15.5455V9.81812H9.33247C9.61031 9.81812 9.86706 9.66225 10.006 9.40913C10.1449 9.15601 10.1449 8.844 10.006 8.59087C9.86706 8.33774 9.61032 8.18188 9.33247 8.18188H5.44374V2.45449C5.44374 1.80363 5.68956 1.17931 6.12716 0.718957C6.56476 0.258599 7.15822 0 7.77691 0H11.8213C12.4188 0.0235589 12.9833 0.294897 13.3913 0.754687C13.7994 1.21462 14.0177 1.82579 13.9989 2.45449V2.45463ZM2.65201 8.18202L3.75636 7.02834C3.95362 6.82083 4.03069 6.5184 3.95856 6.23487C3.8863 5.95135 3.67577 5.72988 3.40627 5.654C3.13689 5.57798 2.84927 5.65907 2.65202 5.86657L0.241126 8.41104C0.171078 8.48651 0.115615 8.57541 0.0777278 8.67293C0.0717386 8.69978 0.0717386 8.72786 0.0777278 8.7547V8.84469C0.0365841 8.88633 0.00924268 8.94084 0 9.00015C0.000520796 9.08973 0.0162746 9.17835 0.0466098 9.2619C0.0846271 9.35942 0.139963 9.44831 0.210008 9.52379L2.6209 12.0683C2.76764 12.2214 2.96631 12.3067 3.17306 12.3055C3.37982 12.3067 3.5785 12.2214 3.72523 12.0683C3.87248 11.9146 3.95529 11.7056 3.95529 11.4874C3.95529 11.2692 3.87248 11.06 3.72523 10.9065L2.652 9.81829H5.444V8.18205L2.65201 8.18202Z" fill="#F83D3D"/>
</svg>
