<svg width="13" height="16" viewBox="0 0 13 16" fill="none" xmlns="http://www.w3.org/2000/svg">
<path d="M9.37131 7.94148C9.36025 7.93448 9.3497 7.92671 9.33972 7.91824L7.26276 6.1504C7.21459 6.10938 7.18168 6.05329 7.16936 5.99123C7.15704 5.92917 7.16605 5.86477 7.1949 5.80847C7.35818 5.49136 7.4163 5.13052 7.36085 4.77818C7.30541 4.42585 7.13927 4.1003 6.8865 3.84866C6.67662 3.64072 6.41611 3.49114 6.13071 3.41472C5.84532 3.3383 5.54493 3.33767 5.25921 3.41289L5.69491 3.84856C5.85221 4.00671 5.94037 4.22078 5.94006 4.44384C5.93976 4.6669 5.85102 4.88073 5.69329 5.03846C5.53557 5.19618 5.32173 5.28493 5.09868 5.28523C4.87562 5.28553 4.66154 5.19737 4.50339 5.04008L4.06773 4.60438C3.99246 4.89007 3.99306 5.19046 4.06947 5.47584C4.14588 5.76123 4.29545 6.02173 4.50339 6.23159C4.75502 6.48442 5.0806 6.65059 5.43297 6.70605C5.78533 6.76151 6.14621 6.70338 6.46334 6.54007C6.51964 6.51121 6.58404 6.50221 6.6461 6.51453C6.70816 6.52684 6.76425 6.55975 6.80527 6.60793L8.57318 8.68502C8.58167 8.695 8.58944 8.70556 8.59646 8.71662C8.64148 8.78783 8.70195 8.848 8.77338 8.89268C8.84481 8.93735 8.92538 8.96539 9.00911 8.9747C9.09284 8.98402 9.1776 8.97438 9.25711 8.9465C9.33661 8.91862 9.40882 8.87321 9.4684 8.81363C9.52797 8.75406 9.57338 8.68184 9.60127 8.60234C9.62915 8.52284 9.63879 8.43808 9.62947 8.35434C9.62015 8.27061 9.59212 8.19004 9.54744 8.11861C9.50277 8.04718 9.44259 7.98672 9.37138 7.94169L9.37131 7.94148Z" fill="#94A2BE"/>
<path d="M9.62961 1.40422V0H2.0468C1.67451 0.000418127 1.31758 0.148497 1.05433 0.41175C0.791075 0.675002 0.642996 1.03193 0.642578 1.40422V11.2338H12.9998V3.37014H11.5955C11.0743 3.36955 10.5746 3.16224 10.2061 2.79369C9.83751 2.42514 9.6302 1.92544 9.62961 1.40422ZM9.86503 9.21052C9.76072 9.31484 9.63688 9.39758 9.50058 9.45404C9.36429 9.5105 9.2182 9.53955 9.07068 9.53955C8.92315 9.53955 8.77707 9.5105 8.64078 9.45404C8.50448 9.39758 8.38064 9.31484 8.27633 9.21052C8.22291 9.15702 8.17501 9.09829 8.13334 9.0352L6.51389 7.13248C6.08518 7.30024 5.61528 7.33228 5.16777 7.22425C4.72026 7.11623 4.31672 6.87337 4.01175 6.52851C3.70678 6.18365 3.51508 5.75344 3.4626 5.29607C3.41012 4.83871 3.49939 4.37626 3.71832 3.97129C3.73913 3.93282 3.76864 3.89974 3.80449 3.87469C3.84035 3.84964 3.88156 3.83331 3.92484 3.827C3.96812 3.82069 4.01228 3.82458 4.05379 3.83835C4.0953 3.85213 4.13303 3.87541 4.16395 3.90634L4.9004 4.64282C4.95342 4.6936 5.02423 4.7216 5.09764 4.72082C5.17106 4.72003 5.24125 4.69053 5.29318 4.63863C5.34511 4.58673 5.37465 4.51655 5.37547 4.44314C5.3763 4.36972 5.34834 4.2989 5.29758 4.24585L4.56107 3.5094C4.53013 3.47848 4.50685 3.44076 4.49308 3.39924C4.4793 3.35773 4.47541 3.31357 4.48172 3.27029C4.48803 3.22701 4.50436 3.1858 4.52941 3.14995C4.55446 3.11409 4.58754 3.08458 4.62601 3.06377C5.0522 2.83572 5.54028 2.75031 6.01858 2.82009C6.49689 2.88986 6.94023 3.11114 7.28351 3.45144C7.59328 3.75985 7.80604 4.15216 7.89556 4.58002C7.98507 5.00788 7.94743 5.45258 7.78727 5.8593L9.69 7.47876C9.75307 7.52044 9.8118 7.56834 9.86531 7.62174C9.96963 7.72606 10.0524 7.8499 10.1088 7.9862C10.1653 8.1225 10.1944 8.26859 10.1944 8.41611C10.1944 8.56364 10.1653 8.70973 10.1088 8.84603C10.0524 8.98232 9.96963 9.10617 9.86531 9.21048L9.86503 9.21052Z" fill="#94A2BE"/>
<path d="M0.642578 14.323C0.642996 14.6953 0.791075 15.0522 1.05433 15.3155C1.31758 15.5787 1.67451 15.7268 2.0468 15.7272H11.5955C11.9678 15.7268 12.3247 15.5787 12.588 15.3155C12.8513 15.0522 12.9993 14.6953 12.9998 14.323V11.7954H0.642578V14.323ZM9.34877 12.3571C9.48739 12.3572 9.62425 12.3882 9.74939 12.4478C9.78275 12.4636 9.81269 12.4857 9.83749 12.513C9.8623 12.5403 9.88148 12.5722 9.89395 12.607C9.90641 12.6417 9.91192 12.6785 9.91016 12.7153C9.90839 12.7522 9.89939 12.7883 9.88366 12.8217C9.86793 12.855 9.84578 12.885 9.81848 12.9098C9.79118 12.9346 9.75926 12.9538 9.72455 12.9662C9.68984 12.9787 9.65301 12.9842 9.61617 12.9824C9.57933 12.9807 9.54319 12.9717 9.50983 12.9559C9.45958 12.9317 9.40455 12.919 9.34877 12.9188C9.0443 12.9188 8.78708 13.3046 8.78708 13.7613C8.78708 14.218 9.0443 14.6039 9.34877 14.6039C9.58794 14.6039 9.79812 14.3657 9.87707 14.0422H9.62961C9.55513 14.0422 9.4837 14.0126 9.43103 13.9599C9.37836 13.9072 9.34877 13.8358 9.34877 13.7613C9.34877 13.6868 9.37836 13.6154 9.43103 13.5627C9.4837 13.5101 9.55513 13.4805 9.62961 13.4805H10.1913C10.2658 13.4805 10.3372 13.5101 10.3899 13.5627C10.4426 13.6154 10.4721 13.6868 10.4721 13.7613C10.4721 14.5356 9.96821 15.1655 9.34877 15.1655C8.72933 15.1655 8.22539 14.5356 8.22539 13.7613C8.22539 12.987 8.72933 12.3571 9.34877 12.3571ZM6.54032 12.3571C7.15976 12.3571 7.6637 12.987 7.6637 13.7613C7.6637 14.5356 7.15976 15.1655 6.54032 15.1655C5.92088 15.1655 5.41694 14.5356 5.41694 13.7613C5.41694 12.987 5.92088 12.3571 6.54032 12.3571ZM3.17018 12.6379C3.17018 12.5635 3.19977 12.492 3.25244 12.4394C3.30511 12.3867 3.37654 12.3571 3.45103 12.3571C3.52551 12.3571 3.59695 12.3867 3.64961 12.4394C3.70228 12.492 3.73187 12.5635 3.73187 12.6379V14.6039H4.57441C4.64889 14.6039 4.72032 14.6334 4.77299 14.6861C4.82566 14.7388 4.85525 14.8102 4.85525 14.8847C4.85525 14.9592 4.82566 15.0306 4.77299 15.0833C4.72032 15.136 4.64889 15.1655 4.57441 15.1655H3.45103C3.37654 15.1655 3.30511 15.136 3.25244 15.0833C3.19977 15.0306 3.17018 14.9592 3.17018 14.8847V12.6379Z" fill="#94A2BE"/>
<path d="M6.54021 14.6043C6.85042 14.6043 7.1019 14.227 7.1019 13.7617C7.1019 13.2964 6.85042 12.9192 6.54021 12.9192C6.22999 12.9192 5.97852 13.2964 5.97852 13.7617C5.97852 14.227 6.22999 14.6043 6.54021 14.6043Z" fill="#94A2BE"/>
<path d="M11.5956 2.80852H12.6027L10.1914 0.397217V1.40429C10.1918 1.77659 10.3399 2.13351 10.6032 2.39677C10.8664 2.66002 11.2233 2.8081 11.5956 2.80852Z" fill="#94A2BE"/>
<rect x="2.9248" y="12.1113" width="8.60087" height="3.37014" fill="#94A2BE"/>
<path d="M1.30957 2.70312H9.91044L10.6477 10.0402H1.30957V2.70312Z" fill="#94A2BE"/>
</svg>
