<svg width="19" height="20" viewBox="0 0 19 20" fill="none" xmlns="http://www.w3.org/2000/svg">
<path d="M9.50002 0.878418C14.7553 0.878418 19 5.1325 18.9953 10.3925C18.9906 15.6431 14.7318 19.8831 9.47181 19.8784C4.22119 19.869 -0.00938565 15.6102 1.56385e-05 10.3408C0.00941693 5.1137 4.2635 0.878418 9.50002 0.878418ZM5.33525 5.27822C5.11432 5.26882 4.94979 5.27352 4.78997 5.25002C4.65835 5.22651 4.57374 5.25472 4.48443 5.35813C4.2353 5.64957 3.98146 5.93631 3.71822 6.21365C3.5067 6.43928 3.44089 6.67901 3.5067 6.98455C3.61481 7.52983 3.5255 8.0328 3.13534 8.47466C2.90971 8.73319 2.72639 9.02933 2.54776 9.32547C2.42085 9.537 2.48666 9.64982 2.72639 9.72503C2.811 9.75323 2.89561 9.79554 2.97552 9.83314C3.24816 9.95066 3.5114 10.0917 3.79344 10.1763C4.12718 10.275 4.43742 10.1998 4.70066 9.94126C4.86988 9.77203 5.06731 9.62161 5.26944 9.49C5.46686 9.35838 5.6972 9.32077 5.94633 9.42889C5.65489 9.83784 5.30234 10.1434 4.86518 10.369C5.15662 10.5523 5.42456 10.6276 5.7254 10.5053C6.12495 10.3408 6.51981 10.1763 6.92876 10.0306C8.21204 9.57461 9.50002 9.41479 10.7927 10.0024C11.1546 10.1669 11.5307 10.1434 11.9208 10.04C12.1935 9.96946 12.4943 9.94596 12.7764 9.95536C13.3216 9.97416 13.7964 10.2374 14.2712 10.4724C14.8729 10.7733 15.4745 11.06 16.2125 10.731C16.0104 11.0976 15.7519 11.2997 15.4228 11.4126C15.0233 11.5489 14.6237 11.516 14.2242 11.3938C13.9186 11.3044 13.6084 11.2057 13.2934 11.154C12.908 11.0882 12.5272 11.1352 12.1606 11.295C12.311 11.3138 12.4614 11.2903 12.6024 11.3185C12.7952 11.3562 13.0725 11.375 13.1571 11.5066C13.3498 11.798 13.5614 12.1506 13.5661 12.4843C13.5755 13.3539 13.8716 14.106 14.3229 14.8158C14.7929 15.5585 14.7929 15.5585 14.337 16.32C14.0361 16.823 13.1618 17.1285 12.5883 16.9922C12.076 16.87 11.5448 16.7525 11.0183 16.7431C9.48121 16.7196 8.17444 17.3354 7.03218 18.3272C7.01338 18.346 7.00397 18.3742 6.98517 18.3977C7.98171 18.7785 9.57993 18.896 10.8491 18.6845C16.8189 17.7067 19.8555 10.9331 16.5886 5.847C15.2019 3.6988 13.2088 2.43433 10.6705 2.04888C10.5953 2.03948 10.4872 2.04418 10.4354 2.08648C9.80556 2.64116 9.02995 2.89029 8.25435 3.13943C7.58685 3.35566 6.90526 3.55308 6.26127 3.83042C5.90402 3.98554 5.57968 4.19707 5.16602 4.14066C5.10491 4.13126 5.04381 4.15477 4.9827 4.16887C4.78527 4.21117 4.66776 4.33809 4.62545 4.53082C4.57844 4.71884 4.63955 4.87866 4.79467 4.98678C4.94039 5.08549 5.11432 5.1607 5.33525 5.27822ZM13.2511 13.2787C13.0255 13.086 12.8328 12.9215 12.64 12.7569C12.6306 12.7663 12.6165 12.7804 12.6071 12.7898C12.7106 13.0014 12.8187 13.2176 12.9268 13.4385C13.0349 13.3821 13.1242 13.3398 13.2511 13.2787Z" fill="#94A2BE"/>
</svg>
