<svg width="16" height="14" viewBox="0 0 16 14" fill="none" xmlns="http://www.w3.org/2000/svg">
<path d="M1.6 0.950049H14.4C15.2008 0.950049 15.85 1.59923 15.85 2.40004C15.85 3.20086 15.2008 3.85004 14.4 3.85004H1.6C0.799185 3.85004 0.15 3.20086 0.15 2.40004C0.15 1.59923 0.799185 0.950049 1.6 0.950049Z" fill="#94A2BE" stroke="#94A2BE" stroke-width="0.3"/>
<path d="M6.3998 5.7501H14.3998C15.2006 5.7501 15.8498 6.39928 15.8498 7.20009C15.8498 8.0009 15.2006 8.65009 14.3998 8.65009H6.3998C5.59899 8.65009 4.9498 8.0009 4.9498 7.20009C4.9498 6.39928 5.59899 5.7501 6.3998 5.7501Z" fill="#94A2BE" stroke="#94A2BE" stroke-width="0.3"/>
<path d="M1.6 10.5501H14.4C15.2008 10.5501 15.85 11.1993 15.85 12.0001C15.85 12.801 15.2008 13.4501 14.4 13.4501H1.6C0.799185 13.4501 0.15 12.801 0.15 12.0001C0.15 11.1993 0.799185 10.5501 1.6 10.5501Z" fill="#94A2BE" stroke="#94A2BE" stroke-width="0.3"/>
<path d="M3.04999 7.20009C3.04999 8.0009 2.40081 8.65009 1.6 8.65009C0.799185 8.65009 0.15 8.0009 0.15 7.20009C0.15 6.39928 0.799185 5.7501 1.6 5.7501C2.40081 5.7501 3.04999 6.39928 3.04999 7.20009Z" fill="#94A2BE" stroke="#94A2BE" stroke-width="0.3"/>
</svg>
