<svg width="14" height="11" viewBox="0 0 14 11" fill="none" xmlns="http://www.w3.org/2000/svg">
<path d="M6.99967 6.83329C7.64942 6.83329 8.17614 6.27365 8.17614 5.58329C8.17614 4.89294 7.64942 4.33329 6.99967 4.33329C6.34993 4.33329 5.8232 4.89294 5.8232 5.58329C5.8232 6.27365 6.34993 6.83329 6.99967 6.83329Z" fill="#94A2BE"/>
<path fill-rule="evenodd" clip-rule="evenodd" d="M0.362881 5.42379C1.6062 2.23586 4.15077 0.166626 6.99967 0.166626C9.84858 0.166626 12.3932 2.23586 13.6365 5.42379C13.6763 5.52591 13.6763 5.64067 13.6365 5.7428C12.3932 8.93073 9.84858 11 6.99967 11C4.15077 11 1.6062 8.93073 0.362881 5.7428C0.32305 5.64067 0.32305 5.52591 0.362881 5.42379ZM6.99967 7.66663C5.91676 7.66663 5.03889 6.73389 5.03889 5.58329C5.03889 4.4327 5.91676 3.49996 6.99967 3.49996C8.08258 3.49996 8.96046 4.4327 8.96046 5.58329C8.96046 6.73389 8.08258 7.66663 6.99967 7.66663Z" fill="#94A2BE"/>
</svg>
