<svg width="14" height="12" viewBox="0 0 14 12" fill="none" xmlns="http://www.w3.org/2000/svg">
<path d="M12.6668 2.66666H10.0002C9.82335 2.66666 9.65378 2.73689 9.52876 2.86192C9.40373 2.98694 9.3335 3.15651 9.3335 3.33332C9.3335 3.51013 9.40373 3.6797 9.52876 3.80473C9.65378 3.92975 9.82335 3.99999 10.0002 3.99999H12.6668C12.8436 3.99999 13.0132 3.92975 13.1382 3.80473C13.2633 3.6797 13.3335 3.51013 13.3335 3.33332C13.3335 3.15651 13.2633 2.98694 13.1382 2.86192C13.0132 2.73689 12.8436 2.66666 12.6668 2.66666Z" fill="#FF2A5F"/>
<path d="M0.666667 1.33333H12.6667C12.8435 1.33333 13.013 1.2631 13.1381 1.13807C13.2631 1.01305 13.3333 0.843477 13.3333 0.666667C13.3333 0.489856 13.2631 0.320286 13.1381 0.195262C13.013 0.0702378 12.8435 0 12.6667 0H0.666667C0.489856 0 0.320286 0.0702378 0.195262 0.195262C0.0702378 0.320286 0 0.489856 0 0.666667C0 0.843477 0.0702378 1.01305 0.195262 1.13807C0.320286 1.2631 0.489856 1.33333 0.666667 1.33333Z" fill="#FF2A5F"/>
<path d="M12.6665 5.33334H11.3332C11.1564 5.33334 10.9868 5.40358 10.8618 5.5286C10.7367 5.65363 10.6665 5.8232 10.6665 6.00001C10.6665 6.17682 10.7367 6.34639 10.8618 6.47141C10.9868 6.59643 11.1564 6.66667 11.3332 6.66667H12.6665C12.8433 6.66667 13.0129 6.59643 13.1379 6.47141C13.2629 6.34639 13.3332 6.17682 13.3332 6.00001C13.3332 5.8232 13.2629 5.65363 13.1379 5.5286C13.0129 5.40358 12.8433 5.33334 12.6665 5.33334Z" fill="#FF2A5F"/>
<path d="M12.6665 7.99999H11.3332C11.1564 7.99999 10.9868 8.07023 10.8618 8.19525C10.7367 8.32028 10.6665 8.48985 10.6665 8.66666C10.6665 8.84347 10.7367 9.01304 10.8618 9.13806C10.9868 9.26309 11.1564 9.33333 11.3332 9.33333H12.6665C12.8433 9.33333 13.0129 9.26309 13.1379 9.13806C13.2629 9.01304 13.3332 8.84347 13.3332 8.66666C13.3332 8.48985 13.2629 8.32028 13.1379 8.19525C13.0129 8.07023 12.8433 7.99999 12.6665 7.99999Z" fill="#FF2A5F"/>
<path d="M12.6668 10.6667H10.0002C9.82335 10.6667 9.65378 10.7369 9.52876 10.8619C9.40373 10.987 9.3335 11.1565 9.3335 11.3333C9.3335 11.5102 9.40373 11.6797 9.52876 11.8048C9.65378 11.9298 9.82335 12 10.0002 12H12.6668C12.8436 12 13.0132 11.9298 13.1382 11.8048C13.2633 11.6797 13.3335 11.5102 13.3335 11.3333C13.3335 11.1565 13.2633 10.987 13.1382 10.8619C13.0132 10.7369 12.8436 10.6667 12.6668 10.6667Z" fill="#FF2A5F"/>
<path d="M4.66667 2.66666C3.74369 2.66666 2.84144 2.94035 2.07401 3.45313C1.30658 3.96591 0.70844 4.69474 0.355231 5.54747C0.00202199 6.40019 -0.0903936 7.3385 0.0896708 8.24374C0.269735 9.14899 0.714192 9.98051 1.36684 10.6332C2.01948 11.2858 2.851 11.7303 3.75625 11.9103C4.66149 12.0904 5.5998 11.998 6.45252 11.6448C7.30524 11.2916 8.03408 10.6934 8.54686 9.92598C9.05964 9.15855 9.33333 8.2563 9.33333 7.33332C9.33333 6.09565 8.84167 4.90866 7.9665 4.03349C7.09133 3.15832 5.90434 2.66666 4.66667 2.66666ZM5.33333 7.33332C5.33384 7.42106 5.31702 7.50803 5.28385 7.58926C5.25067 7.67048 5.20179 7.74436 5.14 7.80666L3.80667 9.13999C3.67913 9.24921 3.51508 9.30628 3.3473 9.2998C3.17951 9.29331 3.02036 9.22376 2.90163 9.10503C2.7829 8.9863 2.71334 8.82714 2.70686 8.65936C2.70038 8.49157 2.75745 8.32752 2.86667 8.19999L4 7.05999V4.66666C4 4.48985 4.07024 4.32028 4.19526 4.19525C4.32029 4.07023 4.48986 3.99999 4.66667 3.99999C4.84348 3.99999 5.01305 4.07023 5.13807 4.19525C5.2631 4.32028 5.33333 4.48985 5.33333 4.66666V7.33332Z" fill="#FF2A5F"/>
</svg>
