<svg width="20" height="17" viewBox="0 0 20 17" fill="none" xmlns="http://www.w3.org/2000/svg">
<path fill-rule="evenodd" clip-rule="evenodd" d="M7.08608 4.46773V3.60941C7.08608 2.0154 8.43486 0.666626 10.0289 0.666626C11.6842 0.666626 13.033 2.0154 13.033 3.60941V4.46773C13.7687 4.46773 14.3817 5.0195 14.3817 5.81651V9.80153C14.3817 10.5372 13.7687 11.089 13.033 11.089H7.08608C6.35039 11.089 5.7373 10.5372 5.7373 9.80153V5.81651C5.7373 5.0195 6.35039 4.46773 7.08608 4.46773ZM7.88309 4.46773H12.236V3.60941C12.236 2.44456 11.255 1.46363 10.0289 1.46363C8.86402 1.46363 7.88309 2.44456 7.88309 3.60941V4.46773ZM10.0289 6.73613C10.458 6.73613 10.7646 7.04267 10.7646 7.41052C10.7646 7.71706 10.5806 7.96229 10.3354 8.08491V8.88191C10.3354 9.24976 9.78364 9.24976 9.78364 8.88191V8.08491C9.53841 7.96229 9.35448 7.71706 9.35448 7.41052C9.35448 7.04267 9.66102 6.73613 10.0289 6.73613Z" fill="#94A2BE"/>
<path fill-rule="evenodd" clip-rule="evenodd" d="M1.87525 12.0088H18.2445C18.7963 12.0088 19.2867 12.4993 19.2867 13.051V15.6873C19.2867 16.3004 18.7963 16.7908 18.2445 16.7908H1.87525C1.32347 16.7908 0.833008 16.3004 0.833008 15.6873V13.051C0.833008 12.4993 1.32347 12.0088 1.87525 12.0088ZM4.45018 13.1736V13.7254L4.87934 13.2963C5.12457 13.051 5.55373 13.4802 5.24719 13.7254L4.87934 14.0933H5.43111C5.79896 14.0933 5.79896 14.645 5.43111 14.645H4.87934L5.24719 15.0742C5.55373 15.3194 5.12457 15.7486 4.87934 15.442L4.45018 15.0742V15.626C4.45018 15.9938 3.89841 15.9938 3.89841 15.626V15.0742L3.53056 15.442C3.28533 15.7486 2.85617 15.3194 3.10141 15.0742L3.53056 14.645H2.97879C2.61094 14.645 2.61094 14.0933 2.97879 14.0933H3.53056L3.10141 13.7254C2.85617 13.4802 3.28533 13.051 3.53056 13.2963L3.89841 13.7254V13.1736C3.89841 12.8058 4.45018 12.8058 4.45018 13.1736ZM8.3739 13.1736V13.7254L8.80306 13.2963C9.04829 13.051 9.41614 13.4802 9.17091 13.7254L8.74175 14.0933H9.35483C9.72268 14.0933 9.72268 14.645 9.35483 14.645H8.74175L9.17091 15.0742C9.41614 15.3194 9.04829 15.7486 8.80306 15.442L8.3739 15.0742V15.626C8.3739 15.9938 7.82213 15.9938 7.82213 15.626V15.0742L7.39297 15.442C7.14774 15.7486 6.77989 15.3194 7.02512 15.0742L7.45428 14.645H6.8412C6.47335 14.645 6.47335 14.0933 6.8412 14.0933H7.45428L7.02512 13.7254C6.77989 13.4802 7.14774 13.051 7.39297 13.2963L7.82213 13.7254V13.1736C7.82213 12.8058 8.3739 12.8058 8.3739 13.1736ZM12.2976 13.1736V13.7254L12.6655 13.2963C12.972 13.051 13.3399 13.4802 13.0946 13.7254L12.6655 14.0933H13.2785C13.6464 14.0933 13.6464 14.645 13.2785 14.645H12.6655L13.0946 15.0742C13.3399 15.3194 12.972 15.7486 12.6655 15.442L12.2976 15.0742V15.626C12.2976 15.9938 11.7458 15.9938 11.7458 15.626V15.0742L11.3167 15.442C11.0715 15.7486 10.7036 15.3194 10.9488 15.0742L11.3167 14.645H10.7649C10.3971 14.645 10.3971 14.0933 10.7649 14.0933H11.3167L10.9488 13.7254C10.7036 13.4802 11.0715 13.051 11.3167 13.2963L11.7458 13.7254V13.1736C11.7458 12.8058 12.2976 12.8058 12.2976 13.1736ZM16.2213 13.1736V13.7254L16.5892 13.2963C16.8344 13.051 17.2636 13.4802 17.0183 13.7254L16.5892 14.0933H17.141C17.5088 14.0933 17.5088 14.645 17.141 14.645H16.5892L17.0183 15.0742C17.2636 15.3194 16.8344 15.7486 16.5892 15.442L16.2213 15.0742V15.626C16.2213 15.9938 15.6696 15.9938 15.6696 15.626V15.0742L15.2404 15.442C14.9952 15.7486 14.566 15.3194 14.8726 15.0742L15.2404 14.645H14.6886C14.3208 14.645 14.3208 14.0933 14.6886 14.0933H15.2404L14.8726 13.7254C14.566 13.4802 14.9952 13.051 15.2404 13.2963L15.6696 13.7254V13.1736C15.6696 12.8058 16.2213 12.8058 16.2213 13.1736Z" fill="#94A2BE"/>
</svg>
