<svg width="11" height="11" viewBox="0 0 11 11" fill="none" xmlns="http://www.w3.org/2000/svg">
<path d="M5.06787 3.53572V7.46429H10.9607V3.53572H5.06787ZM7.4643 6.28572C7.03216 6.28572 6.67859 5.93215 6.67859 5.50001C6.67859 5.06786 7.03216 4.71429 7.4643 4.71429C7.89644 4.71429 8.25001 5.06786 8.25001 5.50001C8.25001 5.93215 7.89644 6.28572 7.4643 6.28572Z" fill="#6974FE"/>
<path d="M11 2.55357H4.63571C4.32143 2.55357 4.08571 2.78929 4.08571 3.10357V7.85714C4.08571 8.17143 4.32143 8.40714 4.63571 8.40714H11V9.82143C11 10.45 10.4893 10.9607 9.86071 10.9607H1.13929C0.510714 11 0 10.4893 0 9.86071V1.13929C0 0.510714 0.510714 0 1.13929 0H9.86071C10.4893 0 11 0.510714 11 1.13929V2.55357Z" fill="#6974FE"/>
<path d="M5.06787 3.53572V7.46429H10.9607V3.53572H5.06787ZM7.4643 6.28572C7.03216 6.28572 6.67859 5.93215 6.67859 5.50001C6.67859 5.06786 7.03216 4.71429 7.4643 4.71429C7.89644 4.71429 8.25001 5.06786 8.25001 5.50001C8.25001 5.93215 7.89644 6.28572 7.4643 6.28572Z" fill="#6974FE"/>
<path d="M5.06787 3.53572V7.46429H10.9607V3.53572H5.06787ZM7.4643 6.28572C7.03216 6.28572 6.67859 5.93215 6.67859 5.50001C6.67859 5.06786 7.03216 4.71429 7.4643 4.71429C7.89644 4.71429 8.25001 5.06786 8.25001 5.50001C8.25001 5.93215 7.89644 6.28572 7.4643 6.28572Z" fill="#6974FE"/>
</svg>
