<svg width="16" height="7" viewBox="0 0 16 7" fill="none" xmlns="http://www.w3.org/2000/svg">
<path d="M16 0.954587V4.58184C16 5.10907 15.6021 5.53638 15.1111 5.53638C14.6201 5.53638 14.2222 5.10907 14.2222 4.58184V3.25909L10.9989 6.72042C10.6517 7.0931 10.0888 7.0931 9.74179 6.72042L5.6296 2.30455L1.51742 6.72042C1.17019 7.0931 0.607514 7.09329 0.260289 6.72042C-0.0867629 6.34755 -0.0867629 5.74313 0.260289 5.37045L5.00113 0.279511C5.34835 -0.0931702 5.91103 -0.0931702 6.25825 0.279511L10.3704 4.69556L12.9651 1.90913H11.7333C11.2423 1.90913 10.8444 1.48182 10.8444 0.954587C10.8444 0.427352 11.2423 4.66141e-05 11.7333 4.66141e-05H15.1111C15.6094 4.66141e-05 16 0.438725 16 0.954587Z" fill="#07CDA5"/>
</svg>
