<svg width="15" height="15" viewBox="0 0 15 15" fill="none" xmlns="http://www.w3.org/2000/svg">
<path d="M6.72492 1C3.56828 1 1 3.56828 1 6.72492C1 9.88173 3.56828 12.4498 6.72492 12.4498C9.88173 12.4498 12.4498 9.88173 12.4498 6.72492C12.4498 3.56828 9.88173 1 6.72492 1ZM6.72492 11.393C4.151 11.393 2.05691 9.29887 2.05691 6.72495C2.05691 4.15102 4.151 2.05691 6.72492 2.05691C9.29884 2.05691 11.3929 4.151 11.3929 6.72492C11.3929 9.29884 9.29884 11.393 6.72492 11.393Z" fill="white" stroke="white" stroke-width="0.5"/>
<path d="M13.845 13.0979L10.8152 10.0681C10.6087 9.86166 10.2744 9.86166 10.0679 10.0681C9.86147 10.2744 9.86147 10.6091 10.0679 10.8154L13.0977 13.8452C13.2009 13.9484 13.3361 14 13.4714 14C13.6065 14 13.7417 13.9484 13.845 13.8452C14.0514 13.6389 14.0514 13.3042 13.845 13.0979Z" fill="white" stroke="white" stroke-width="0.5"/>
</svg>
