<svg width="13" height="15" viewBox="0 0 13 15" fill="none" xmlns="http://www.w3.org/2000/svg">
<path d="M6.88135 7.771C8.93597 7.771 10.6016 6.1054 10.6016 4.05078C10.6016 1.99616 8.93597 0.330566 6.88135 0.330566C4.82673 0.330566 3.16113 1.99616 3.16113 4.05078C3.16113 6.1054 4.82673 7.771 6.88135 7.771Z" fill="#94A2BE"/>
<path d="M9.85723 8.73999H3.90488C3.11582 8.74086 2.35932 9.0547 1.80137 9.61265C1.24342 10.1706 0.929577 10.9271 0.928711 11.7162V13.7003C0.928711 13.8318 0.980971 13.958 1.07399 14.051C1.16702 14.144 1.29318 14.1963 1.42474 14.1963H12.3374C12.4689 14.1963 12.5951 14.144 12.6881 14.051C12.7811 13.958 12.8334 13.8318 12.8334 13.7003V11.7162C12.8325 10.9271 12.5187 10.1706 11.9607 9.61265C11.4028 9.0547 10.6463 8.74086 9.85723 8.73999Z" fill="#94A2BE"/>
</svg>
